<?xml version="1.0" encoding="UTF-8" standalone="no"?>
<!-- Created with Inkscape (http://www.inkscape.org/) -->

<svg
   width="184.13412mm"
   height="194.39008mm"
   viewBox="0 0 184.13412 194.39007"
   version="1.1"
   id="svg1"
   xml:space="preserve"
   inkscape:version="1.3.2 (091e20e, 2023-11-25, custom)"
   sodipodi:docname="logo2.svg"
   xmlns:inkscape="http://www.inkscape.org/namespaces/inkscape"
   xmlns:sodipodi="http://sodipodi.sourceforge.net/DTD/sodipodi-0.dtd"
   xmlns="http://www.w3.org/2000/svg"
   xmlns:svg="http://www.w3.org/2000/svg"><sodipodi:namedview
     id="namedview1"
     pagecolor="#ffffff"
     bordercolor="#000000"
     borderopacity="0.25"
     inkscape:showpageshadow="2"
     inkscape:pageopacity="0.0"
     inkscape:pagecheckerboard="0"
     inkscape:deskcolor="#d1d1d1"
     inkscape:document-units="mm"
     inkscape:zoom="0.89328375"
     inkscape:cx="603.3917"
     inkscape:cy="634.73672"
     inkscape:window-width="2557"
     inkscape:window-height="1360"
     inkscape:window-x="1218"
     inkscape:window-y="0"
     inkscape:window-maximized="0"
     inkscape:current-layer="g15"
     showguides="false" /><defs
     id="defs1" /><g
     inkscape:label="Layer 1"
     inkscape:groupmode="layer"
     id="layer1"
     transform="translate(-17.246071,-46.977848)"><g
       id="g15"
       style="fill:#f9f9f9"><path
         style="fill:#f2f2f2;fill-opacity:1;stroke:#000000;stroke-width:17.638;stroke-linejoin:round;stroke-dasharray:none;stroke-opacity:1"
         d="m 30.063466,206.1495 c 21.639754,-10.14748 35.661023,-24.14404 29.361407,-47.91997 -8.470055,-31.96759 3.69648,-77.725481 66.118167,-63.401511 4.50359,-6.6838 9.76043,-20.918226 28.3948,-33.881199 C 79.708915,40.270255 14.216831,84.526758 27.810134,148.52585 c 3.960871,18.64831 12.942159,37.95615 2.253332,57.62365 z"
         id="path1-4"
         sodipodi:nodetypes="csccsc" /><path
         style="fill:#f2f2f2;fill-opacity:1;stroke:#000000;stroke-width:17.7384;stroke-linejoin:round;stroke-dasharray:none;stroke-opacity:1"
         d="m 63.861884,129.98215 c 9.066644,-27.95344 39.844526,-31.009978 58.777326,-25.13589 l 2.09503,-6.187169 c -17.5381,-6.23964 -53.353381,-8.524639 -64.142779,29.560529 0.04642,6.92891 2.244676,3.71756 3.270423,1.76253 z"
         id="path1-8-1"
         sodipodi:nodetypes="ccccc" /><path
         style="fill:#f2f2f2;fill-opacity:1;stroke:#000000;stroke-width:17.7384;stroke-linejoin:round;stroke-dasharray:none;stroke-opacity:1"
         d="M 68.221392,165.04018 C 51.825093,117.27258 91.054758,96.228817 126.6623,109.27681 112.86809,121.12103 85.222476,138.74695 68.221392,165.04018 Z"
         id="path2-1"
         sodipodi:nodetypes="ccc" /><path
         id="path3-6"
         style="fill:#f2f2f2;fill-opacity:1;stroke:#000000;stroke-width:17.7384;stroke-linejoin:round;stroke-dasharray:none;stroke-opacity:1"
         d="m 138.96299,100.00698 c -21.87971,26.98077 -59.206923,43.15532 -74.03683,81.89113 11.430607,-3.16492 18.376749,-3.9161 25.761219,-4.71238 l -26.598894,8.79637 c -3.673257,10.00527 -5.259316,10.49533 -9.629386,15.93908 36.684148,1.84194 37.988285,2.06203 55.510831,14.45286 7.55295,5.34098 25.59991,17.37143 31.82028,15.89412 -7.78786,-13.84785 -15.96114,-19.37338 -21.88601,-73.40844 l 11.62358,-2.30373 c 3.31812,3.50929 2.6889,7.32207 2.51354,11.10009 2.23112,-2.56848 5.34835,-5.4217 5.44515,-12.35686 l 2.30374,-0.10491 c 2.13626,4.12567 3.18083,8.87732 1.83296,13.14235 3.9279,-2.19303 5.65305,-7.14467 5.81153,-13.24673 h 2.30425 c 3.45957,6.43917 2.63139,10.99237 1.30897,15.65537 5.24525,-2.65178 6.06308,-8.82262 5.91643,-15.76028 l 3.35122,-0.20929 z m -21.14652,33.57987 c 4.64418,-0.0974 11.94711,2.47094 21.48913,4.91236 -8.36314,10.13341 -20.26419,8.38997 -25.69455,-3.406 0.97784,-1.02176 2.38814,-1.46826 4.20542,-1.50636 z"
         sodipodi:nodetypes="cccccsccccccccccccccccc" /><path
         style="fill:#f2f2f2;fill-opacity:1;stroke:#000000;stroke-width:17.7384;stroke-linejoin:round;stroke-dasharray:none;stroke-opacity:1"
         d="m 125.58533,171.34697 c 6.12769,-1.24975 13.8658,-1.00613 20.91678,5.24036 13.91991,12.33171 24.18426,5.65394 28.63217,4.54378 16.44046,-4.10338 26.75972,21.14775 5.09844,25.09244 13.92271,-6.06388 6.48649,-22.62701 -4.86621,-19.57068 -3.23612,0.87121 -18.52383,8.99834 -33.23688,-4.56054 -3.87273,-3.56893 -8.83009,-3.44664 -15.43358,-2.89628 z"
         id="path5-4"
         sodipodi:nodetypes="csscsscc" /><path
         style="fill:#f2f2f2;fill-opacity:1;stroke:#000000;stroke-width:17.7384;stroke-linejoin:round;stroke-dasharray:none;stroke-opacity:1"
         d="m 128.54725,191.33991 c 3.5181,-0.6872 6.85289,-4.48718 8.66361,-7.21967 0.53352,4.93337 -0.0945,9.56595 -3.40621,13.21756 l 2.59168,1.8512 c 4.01027,-3.25844 5.89679,-7.57876 7.36778,-12.10684 2.44711,4.15438 1.58684,9.55749 -1.29585,15.88328 l 1.77715,1.22179 c -4.43714,5.12144 -6.6078,6.52568 -9.55218,8.47849 -3.39835,-8.72823 -5.70484,-16.14622 -6.14598,-21.32581 z"
         id="path6-3"
         sodipodi:nodetypes="ccccccccc" /><path
         style="opacity:1;fill:#f2f2f2;fill-opacity:1;stroke:#000000;stroke-width:0.587893;stroke-dasharray:none;stroke-opacity:0"
         d="m 30.063469,206.1495 c 21.639754,-10.14748 35.661023,-24.14404 29.361407,-47.91997 -8.470055,-31.96759 3.69648,-77.725481 66.118164,-63.401511 4.50359,-6.6838 9.76043,-20.918226 28.3948,-33.881199 C 79.708918,40.270255 14.216834,84.526758 27.810137,148.52585 c 3.960871,18.64831 12.942159,37.95615 2.253332,57.62365 z"
         id="path1"
         sodipodi:nodetypes="csccsc" /><path
         style="fill:#f2f2f2;fill-opacity:1;stroke:#000000;stroke-width:0.587893;stroke-dasharray:none;stroke-opacity:0"
         d="m 63.861887,129.98215 c 9.066644,-27.95344 39.844523,-31.009978 58.777323,-25.13589 l 2.09503,-6.187169 c -17.5381,-6.23964 -53.353378,-8.524639 -64.142776,29.560529 0.04642,6.92891 2.244676,3.71756 3.270423,1.76253 z"
         id="path1-8"
         sodipodi:nodetypes="ccccc" /><path
         style="opacity:1;fill:#f2f2f2;fill-opacity:1;stroke:#000000;stroke-width:0.587893;stroke-dasharray:none;stroke-opacity:0"
         d="M 68.221395,165.04018 C 51.825096,117.27258 91.054761,96.228817 126.6623,109.27681 112.86809,121.12103 85.222479,138.74695 68.221395,165.04018 Z"
         id="path2"
         sodipodi:nodetypes="ccc" /><path
         id="path3"
         style="opacity:1;fill:#f2f2f2;fill-opacity:1;stroke:#000000;stroke-width:0.587893;stroke-dasharray:none;stroke-opacity:0"
         d="m 138.96299,100.00698 c -21.87971,26.98077 -59.20692,43.15532 -74.036827,81.89113 l -10.467061,20.02307 c 36.684148,1.84194 37.988285,2.06203 55.510828,14.45286 7.55295,5.34098 25.59991,17.37143 31.82028,15.89412 -7.78786,-13.84785 -15.96114,-19.37338 -21.88601,-73.40844 l 11.62358,-2.30373 c 3.31812,3.50929 2.6889,7.32207 2.51354,11.10009 2.23112,-2.56848 5.34835,-5.4217 5.44515,-12.35686 l 2.30374,-0.10491 c 2.13626,4.12567 3.18083,8.87732 1.83296,13.14235 3.9279,-2.19303 5.65305,-7.14467 5.81153,-13.24673 h 2.30425 c 3.45957,6.43917 2.63139,10.99237 1.30897,15.65537 5.24525,-2.65178 6.06308,-8.82262 5.91643,-15.76028 l 3.35122,-0.20929 z m -21.14652,33.57987 c 4.64418,-0.0974 11.94711,2.47094 21.48913,4.91236 -8.36314,10.13341 -20.26419,8.38997 -25.69455,-3.406 0.97784,-1.02176 2.38814,-1.46826 4.20542,-1.50636 z"
         sodipodi:nodetypes="cccscccccccccccccsccs" /><path
         style="opacity:1;fill:#f2f2f2;fill-opacity:1;stroke:#000000;stroke-width:0.587893;stroke-dasharray:none;stroke-opacity:0"
         d="m 125.58533,171.34697 c 6.12769,-1.24975 13.8658,-1.00613 20.91678,5.24036 13.91991,12.33171 24.18426,5.65394 28.63217,4.54378 16.44046,-4.10338 26.75972,21.14775 5.09844,25.09244 13.92271,-6.06388 6.48649,-22.62701 -4.86621,-19.57068 -3.23612,0.87121 -18.52383,8.99834 -33.23688,-4.56054 -3.87273,-3.56893 -8.83009,-3.44664 -15.43358,-2.89628 z"
         id="path5"
         sodipodi:nodetypes="csscsscc" /><path
         style="opacity:1;fill:#f2f2f2;fill-opacity:1;stroke:#000000;stroke-width:0.587893;stroke-dasharray:none;stroke-opacity:0"
         d="m 128.54725,191.33991 c 3.5181,-0.6872 6.85289,-4.48718 8.66361,-7.21967 0.53352,4.93337 -0.0945,9.56595 -3.40621,13.21756 l 2.59168,1.8512 c 4.01027,-3.25844 5.89679,-7.57876 7.36778,-12.10684 2.44711,4.15438 1.58684,9.55749 -1.29585,15.88328 l 1.77715,1.22179 c -4.43714,5.12144 -6.6078,6.52568 -9.55218,8.47849 -3.39835,-8.72823 -5.70484,-16.14622 -6.14598,-21.32581 z"
         id="path6"
         sodipodi:nodetypes="ccccccccc" /></g></g></svg>
