<?xml version="1.0" encoding="UTF-8" standalone="no"?>
<!-- Created with Inkscape (http://www.inkscape.org/) -->

<svg
   width="205mm"
   height="130mm"
   viewBox="0 0 205 130"
   version="1.1"
   id="svg1"
   inkscape:version="1.3.2 (091e20e, 2023-11-25, custom)"
   sodipodi:docname="old-paper-body.svg"
   xmlns:inkscape="http://www.inkscape.org/namespaces/inkscape"
   xmlns:sodipodi="http://sodipodi.sourceforge.net/DTD/sodipodi-0.dtd"
   xmlns:xlink="http://www.w3.org/1999/xlink"
   xmlns="http://www.w3.org/2000/svg"
   xmlns:svg="http://www.w3.org/2000/svg">
  <sodipodi:namedview
     id="namedview1"
     pagecolor="#ffffff"
     bordercolor="#000000"
     borderopacity="0.25"
     inkscape:showpageshadow="2"
     inkscape:pageopacity="0.0"
     inkscape:pagecheckerboard="0"
     inkscape:deskcolor="#d1d1d1"
     inkscape:document-units="mm"
     showgrid="false"
     inkscape:zoom="2.0561936"
     inkscape:cx="697.16198"
     inkscape:cy="375.45103"
     inkscape:window-width="2558"
     inkscape:window-height="1360"
     inkscape:window-x="1273"
     inkscape:window-y="0"
     inkscape:window-maximized="0"
     inkscape:current-layer="layer1">
    <inkscape:grid
       id="grid1"
       units="mm"
       originx="-1.3504642e-07"
       originy="-9.9999995"
       spacingx="0.99999998"
       spacingy="1"
       empcolor="#0099e5"
       empopacity="0.30196078"
       color="#0099e5"
       opacity="0.14901961"
       empspacing="5"
       dotted="false"
       gridanglex="30"
       gridanglez="30"
       visible="false" />
  </sodipodi:namedview>
  <defs
     id="defs1">
    <inkscape:path-effect
       effect="simplify"
       id="path-effect9"
       is_visible="true"
       lpeversion="1.3"
       threshold="5"
       steps="1"
       smooth_angles="360"
       helper_size="10"
       simplify_individual_paths="false"
       simplify_just_coalesce="false" />
    <linearGradient
       id="linearGradient8"
       inkscape:collect="always">
      <stop
         style="stop-color:#c0a972;stop-opacity:1;"
         offset="0"
         id="stop7" />
      <stop
         style="stop-color:#f5e6cf;stop-opacity:1;"
         offset="1"
         id="stop8" />
    </linearGradient>
    <linearGradient
       id="linearGradient1"
       inkscape:collect="always">
      <stop
         style="stop-color:#bba484;stop-opacity:1;"
         offset="0"
         id="stop1" />
      <stop
         style="stop-color:#f5ddb4;stop-opacity:1;"
         offset="0.19347827"
         id="stop4" />
      <stop
         style="stop-color:#f5ddb4;stop-opacity:1;"
         offset="0.80217391"
         id="stop3" />
      <stop
         style="stop-color:#bba484;stop-opacity:1;"
         offset="1"
         id="stop2" />
    </linearGradient>
    <linearGradient
       inkscape:collect="always"
       xlink:href="#linearGradient1"
       id="linearGradient2"
       x1="5"
       y1="122.49999"
       x2="200"
       y2="122.49999"
       gradientUnits="userSpaceOnUse" />
    <inkscape:path-effect
       effect="simplify"
       id="path-effect9-2"
       is_visible="true"
       lpeversion="1.3"
       threshold="5"
       steps="1"
       smooth_angles="360"
       helper_size="10"
       simplify_individual_paths="false"
       simplify_just_coalesce="false" />
    <linearGradient
       inkscape:collect="always"
       xlink:href="#linearGradient8"
       id="linearGradient10"
       gradientUnits="userSpaceOnUse"
       x1="197"
       y1="81"
       x2="205"
       y2="81" />
    <linearGradient
       inkscape:collect="always"
       xlink:href="#linearGradient8"
       id="linearGradient10-2"
       gradientUnits="userSpaceOnUse"
       x1="197"
       y1="81"
       x2="205"
       y2="81" />
    <inkscape:path-effect
       effect="simplify"
       id="path-effect9-2-7"
       is_visible="true"
       lpeversion="1.3"
       threshold="5"
       steps="1"
       smooth_angles="360"
       helper_size="10"
       simplify_individual_paths="false"
       simplify_just_coalesce="false" />
  </defs>
  <g
     inkscape:label="Layer 1"
     inkscape:groupmode="layer"
     id="layer1"
     transform="translate(-1.3504642e-7,-9.9999997)">
    <path
       style="fill:url(#linearGradient2);stroke-width:0.899999;stroke-linecap:round;stroke-linejoin:round"
       d="M 4.5000001,10 200,9.9999997 200.07143,83.741499 200.5,140 H 5.0000001 l 0.332321,-73.25751 z"
       id="path1"
       sodipodi:nodetypes="ccccccc" />
    <path
       style="fill:url(#linearGradient10);stroke-width:0.899999;stroke-linecap:round;stroke-linejoin:round"
       d="m 202,10.000001 c -1,0 -3.44721,-0.8944276 -3,-1.3e-6 0.33333,0.6666663 1.18279,1.2774063 1,2.0000003 -0.33912,1.340579 -0.39392,2.787835 -1.01188,4.023765 -0.32937,0.658744 -1.31103,1.314297 -0.98812,1.976234 0.33822,0.693328 0.78155,1.344656 1.02521,2.075619 0.32493,0.974793 1.29453,1.947875 0.97479,2.924381 -0.33339,1.01817 -0.83655,1.995963 -1.00854,3.052449 -0.21421,1.315849 -1.18097,2.727906 -0.64263,3.947551 0.30242,0.685148 0.76116,1.321168 0.91789,2.051921 0.24254,1.130796 0.73597,2.236217 0.73328,3.391781 -0.004,1.527262 0.30461,3.087708 -0.005,4.58233 -0.25373,1.223618 -0.25918,2.526808 -0.7559,3.672523 -0.33259,0.767148 -1.20286,1.490843 -0.99778,2.301445 0.253,0.999999 1.01303,2.000263 0.759,3 -0.34715,1.36618 -0.58798,2.763949 -1.03361,4.100825 -0.32213,0.96639 -1.41891,1.986536 -0.96639,2.899174 0.66992,1.351108 1.54016,2.620482 2.0168,4.050413 0.32774,0.983194 1.23456,1.944152 0.9832,2.949587 -0.33333,1.333332 -1.18549,2.638208 -1,4 0.29159,2.140692 0.65605,4.271329 0.91156,6.416785 0.0346,0.290592 0.0935,0.571627 0.0365,0.870829 -0.16895,0.886959 -0.26918,1.789622 -0.49503,2.663472 -0.48421,1.873425 -1.66132,3.696434 -1.45303,5.620179 0.11084,1.023715 -0.10495,2.139896 0.32393,3.073526 0.31749,0.691171 0.84217,1.32142 0.95958,2.071346 0.23744,1.516628 0.71649,3.014976 0.71649,4.549562 0,1.41656 0.44345,2.904323 0,4.249684 -0.1779,0.539739 -0.44184,1.057486 -0.54974,1.614783 -0.14935,0.771425 -0.39683,1.530054 -0.45954,2.312606 -0.069,0.8606 -0.45394,1.75547 -0.21665,2.58275 0.31834,1.10987 0.71432,2.19618 1.00942,3.31284 0.0632,0.23903 0.23541,0.4711 0.21169,0.71456 -0.099,1.01675 -0.0973,2.04841 -0.28747,3.05159 -0.24065,1.26945 -0.49787,2.53452 -0.75552,3.80144 -0.0759,0.37302 -0.34247,0.75715 -0.2418,1.11952 0.28118,1.01217 0.84801,1.95767 0.95822,3.00094 0.10754,1.01793 0.33575,2.03034 0.33139,3.0533 -0.005,1.19933 0.32818,2.44958 -0.008,3.59912 -0.22872,0.78292 -0.7529,1.5366 -0.69573,2.34768 0.0822,1.16569 -0.10935,2.38441 0.24029,3.49824 0.15436,0.49175 0.60194,0.9789 0.46309,1.47525 -0.33091,1.18292 -1,2.321 -1,3.54776 0,1.48408 -1.48408,4.45224 0,4.45224 1,0 2.68377,0.94868 3,0 0.33333,-1 1.10874,-1.95153 1,-3 -0.1263,-1.21774 -0.5846,-2.44689 -0.38609,-3.65344 0.1287,-0.78218 0.7406,-1.63754 0.38609,-2.34656 -0.33333,-0.66667 -1.32514,-1.3293 -1,-2 0.35203,-0.72617 0.77003,-1.42353 1.06892,-2.17275 0.31036,-0.77798 1.11677,-1.51718 0.93108,-2.33394 -0.25718,-1.13117 -0.46568,-2.27382 -0.78547,-3.3901 -0.25817,-0.90115 -0.46342,-1.81885 -0.76174,-2.7074 -0.28575,-0.85108 -0.84083,-1.65618 -0.86511,-2.55182 -0.035,-1.28992 -0.34243,-2.60169 -0.11031,-3.87016 0.18747,-1.02453 0.2659,-2.07519 0.55182,-3.07602 0.32361,-1.13271 1.39317,-2.29842 0.97081,-3.39812 -0.30637,-0.79769 -0.91319,-1.53932 -0.92826,-2.39123 -0.0186,-1.05354 -0.21219,-2.11877 -0.0645,-3.161104 0.19001,-1.341202 0.25332,-2.706677 0.56278,-4.024959 0.25629,-1.091814 1.02994,-2.184757 0.76889,-3.275446 -0.29266,-1.22277 -0.30301,-2.550693 -0.87186,-3.670573 -0.3394,-0.668168 -0.85315,-1.273846 -1.02433,-2.002245 -0.31132,-1.32471 -1.28191,-2.658575 -0.93395,-3.974135 0.31367,-1.185911 0.45648,-2.430953 0.93407,-3.560066 0.36002,-0.851165 0.64685,-1.737077 1.07036,-2.557997 0.49559,-0.960645 2.04029,-1.953454 1.48678,-2.881937 -0.66667,-1.1183 -1.81743,-2.065832 -2,-3.354903 -0.12488,-0.881698 -0.6219,-1.789618 -0.37463,-2.645097 0.25799,-0.892555 0.381,-1.835994 0.76641,-2.680438 0.35289,-0.773187 1.24481,-1.490285 1.05867,-2.319562 -0.23695,-1.055629 -0.48154,-2.109345 -0.6632,-3.176557 -0.16331,-0.959381 -0.32946,-1.919257 -0.57418,-2.861208 -0.089,-0.342361 -0.0911,-0.718326 -0.24867,-1.033529 C 201.6429,55.285803 200.7727,54.681898 201,53.999998 201.66667,52 203.94281,49.885615 203,47.999999 c -0.33333,-0.666666 -1.32679,-1.330102 -1,-2 0.33822,-0.693328 0.78155,-1.344656 1.02521,-2.075619 0.32493,-0.974793 1.12809,-1.908359 0.97479,-2.924381 -0.32927,-2.182306 -1.71326,-4.45649 -1,-6.545061 0.33333,-0.976066 1.81984,-2.302361 1,-2.928202 -0.66667,-0.508912 -2.36744,-0.772797 -2,-1.526737 0.34188,-0.7015 0.76846,-1.367625 1.03654,-2.0998 0.47601,-1.300065 1.59144,-2.52541 1.42802,-3.9002 -0.15944,-1.341337 -0.0461,-2.744581 -0.47296,-4.025206 C 203.66107,18.983196 202.42021,17.869688 203,17 c 0.66667,-0.999999 2.72111,-2.038521 2,-3 -1,-1.333332 -2,-2.666667 -3,-3.999999 z"
       id="path4-9"
       sodipodi:nodetypes="cccccccccccccccccccccccccccccccccccccccccccccccccccccccccccccccccccccccccccccccccccccccccccccc"
       transform="matrix(-0.42055137,0,0,-1,89.375583,149.98704)"
       inkscape:original-d="m 202,10.000001 -3,-1.3e-6 L 200,12 l -1,4 -1,1.999999 1,2 1,3 -1,3 -0.65117,4 0.90658,2 L 200,35.417131 v 4.582868 l -0.75065,3.674178 -1.00835,2.325822 0.759,3 -1,4 -1,2.999999 1,2 1,2 1,3 -1,4 0.54507,4 0.45493,3 -0.50043,2.771016 -0.89959,3.48037 -0.59998,2.319879 0.31268,3.049454 0.96667,2.069175 L 200,92.239127 v 4.276254 L 199.47682,97.999997 199,100.3369 198.76668,103 l 0.57886,2 0.65446,2 -0.27296,3 -0.49734,2.6884 -0.52688,2.3116 0.29718,1 0.66567,2 0.33433,3 v 3.65338 L 199.29485,127 l 0.2341,3.4994 L 200,132 l -1,3.52119 V 140 h 3 l 1,-3 -0.3904,-3.62722 L 203,131 l -1,-2 1,-2 1,-2.50669 -0.53937,-2.49331 -0.9132,-3.32767 -0.95896,-2.80178 L 201.47277,112 202,109 l 1,-3.50031 -0.92765,-2.36467 -0.0724,-3.135023 0.55182,-4 0.78711,-3.353046 -0.85969,-3.646954 -1.03042,-1.999999 -0.94003,-4 0.91375,-3.510963 0.19162,-0.463156 0.83815,-2.025881 1.54769,-3 -2,-3.354903 -0.37463,-2.645097 0.74435,-2.632096 1.08073,-2.367904 -0.45045,-2 -0.47682,-2.636915 L 202,55.999998 l -1,-2 1,-2.999999 1,-3 -1,-2 1,-2 1,-3 -0.45493,-3 L 203,34.454938 l 1,-2.928202 -2,-1.526737 1,-2 1.46456,-4 -0.46456,-4 L 203,17 l 2,-3 z"
       inkscape:path-effect="#path-effect9-2" />
    <path
       style="fill:url(#linearGradient10-2);stroke-width:0.899999;stroke-linecap:round;stroke-linejoin:round"
       d="m 202,10.000001 c -1,0 -3.44721,-0.8944276 -3,-1.3e-6 0.33333,0.6666663 1.18279,1.2774063 1,2.0000003 -0.33912,1.340579 -0.39392,2.787835 -1.01188,4.023765 -0.32937,0.658744 -1.31103,1.314297 -0.98812,1.976234 0.33822,0.693328 0.78155,1.344656 1.02521,2.075619 0.32493,0.974793 1.29453,1.947875 0.97479,2.924381 -0.33339,1.01817 -0.83655,1.995963 -1.00854,3.052449 -0.21421,1.315849 -1.18097,2.727906 -0.64263,3.947551 0.30242,0.685148 0.76116,1.321168 0.91789,2.051921 0.24254,1.130796 0.73597,2.236217 0.73328,3.391781 -0.004,1.527262 0.30461,3.087708 -0.005,4.58233 -0.25373,1.223618 -0.25918,2.526808 -0.7559,3.672523 -0.33259,0.767148 -1.20286,1.490843 -0.99778,2.301445 0.253,0.999999 1.01303,2.000263 0.759,3 -0.34715,1.36618 -0.58798,2.763949 -1.03361,4.100825 -0.32213,0.96639 -1.41891,1.986536 -0.96639,2.899174 0.66992,1.351108 1.54016,2.620482 2.0168,4.050413 0.32774,0.983194 1.23456,1.944152 0.9832,2.949587 -0.33333,1.333332 -1.18549,2.638208 -1,4 0.29159,2.140692 0.65605,4.271329 0.91156,6.416785 0.0346,0.290592 0.0935,0.571627 0.0365,0.870829 -0.16895,0.886959 -0.26918,1.789622 -0.49503,2.663472 -0.48421,1.873425 -1.66132,3.696434 -1.45303,5.620179 0.11084,1.023715 -0.10495,2.139896 0.32393,3.073526 0.31749,0.691171 0.84217,1.32142 0.95958,2.071346 0.23744,1.516628 0.71649,3.014976 0.71649,4.549562 0,1.41656 0.44345,2.904323 0,4.249684 -0.1779,0.539739 -0.44184,1.057486 -0.54974,1.614783 -0.14935,0.771425 -0.39683,1.530054 -0.45954,2.312606 -0.069,0.8606 -0.45394,1.75547 -0.21665,2.58275 0.31834,1.10987 0.71432,2.19618 1.00942,3.31284 0.0632,0.23903 0.23541,0.4711 0.21169,0.71456 -0.099,1.01675 -0.0973,2.04841 -0.28747,3.05159 -0.24065,1.26945 -0.49787,2.53452 -0.75552,3.80144 -0.0759,0.37302 -0.34247,0.75715 -0.2418,1.11952 0.28118,1.01217 0.84801,1.95767 0.95822,3.00094 0.10754,1.01793 0.33575,2.03034 0.33139,3.0533 -0.005,1.19933 0.32818,2.44958 -0.008,3.59912 -0.22872,0.78292 -0.7529,1.5366 -0.69573,2.34768 0.0822,1.16569 -0.10935,2.38441 0.24029,3.49824 0.15436,0.49175 0.60194,0.9789 0.46309,1.47525 -0.33091,1.18292 -1,2.321 -1,3.54776 0,1.48408 -1.48408,4.45224 0,4.45224 1,0 2.68377,0.94868 3,0 0.33333,-1 1.10874,-1.95153 1,-3 -0.1263,-1.21774 -0.5846,-2.44689 -0.38609,-3.65344 0.1287,-0.78218 0.7406,-1.63754 0.38609,-2.34656 -0.33333,-0.66667 -1.32514,-1.3293 -1,-2 0.35203,-0.72617 0.77003,-1.42353 1.06892,-2.17275 0.31036,-0.77798 1.11677,-1.51718 0.93108,-2.33394 -0.25718,-1.13117 -0.46568,-2.27382 -0.78547,-3.3901 -0.25817,-0.90115 -0.46342,-1.81885 -0.76174,-2.7074 -0.28575,-0.85108 -0.84083,-1.65618 -0.86511,-2.55182 -0.035,-1.28992 -0.34243,-2.60169 -0.11031,-3.87016 0.18747,-1.02453 0.2659,-2.07519 0.55182,-3.07602 0.32361,-1.13271 1.39317,-2.29842 0.97081,-3.39812 -0.30637,-0.79769 -0.91319,-1.53932 -0.92826,-2.39123 -0.0186,-1.05354 -0.21219,-2.11877 -0.0645,-3.161104 0.19001,-1.341202 0.25332,-2.706677 0.56278,-4.024959 0.25629,-1.091814 1.02994,-2.184757 0.76889,-3.275446 -0.29266,-1.22277 -0.30301,-2.550693 -0.87186,-3.670573 -0.3394,-0.668168 -0.85315,-1.273846 -1.02433,-2.002245 -0.31132,-1.32471 -1.28191,-2.658575 -0.93395,-3.974135 0.31367,-1.185911 0.45648,-2.430953 0.93407,-3.560066 0.36002,-0.851165 0.64685,-1.737077 1.07036,-2.557997 0.49559,-0.960645 2.04029,-1.953454 1.48678,-2.881937 -0.66667,-1.1183 -1.81743,-2.065832 -2,-3.354903 -0.12488,-0.881698 -0.6219,-1.789618 -0.37463,-2.645097 0.25799,-0.892555 0.381,-1.835994 0.76641,-2.680438 0.35289,-0.773187 1.24481,-1.490285 1.05867,-2.319562 -0.23695,-1.055629 -0.48154,-2.109345 -0.6632,-3.176557 -0.16331,-0.959381 -0.32946,-1.919257 -0.57418,-2.861208 -0.089,-0.342361 -0.0911,-0.718326 -0.24867,-1.033529 C 201.6429,55.285803 200.7727,54.681898 201,53.999998 201.66667,52 203.94281,49.885615 203,47.999999 c -0.33333,-0.666666 -1.32679,-1.330102 -1,-2 0.33822,-0.693328 0.78155,-1.344656 1.02521,-2.075619 0.32493,-0.974793 1.12809,-1.908359 0.97479,-2.924381 -0.32927,-2.182306 -1.71326,-4.45649 -1,-6.545061 0.33333,-0.976066 1.81984,-2.302361 1,-2.928202 -0.66667,-0.508912 -2.36744,-0.772797 -2,-1.526737 0.34188,-0.7015 0.76846,-1.367625 1.03654,-2.0998 0.47601,-1.300065 1.59144,-2.52541 1.42802,-3.9002 -0.15944,-1.341337 -0.0461,-2.744581 -0.47296,-4.025206 C 203.66107,18.983196 202.42021,17.869688 203,17 c 0.66667,-0.999999 2.72111,-2.038521 2,-3 -1,-1.333332 -2,-2.666667 -3,-3.999999 z"
       id="path4-9-8"
       sodipodi:nodetypes="cccccccccccccccccccccccccccccccccccccccccccccccccccccccccccccccccccccccccccccccccccccccccccccc"
       transform="matrix(0.42055137,0,0,1,115.77652,-1.3e-6)"
       inkscape:original-d="m 202,10.000001 -3,-1.3e-6 L 200,12 l -1,4 -1,1.999999 1,2 1,3 -1,3 -0.65117,4 0.90658,2 L 200,35.417131 v 4.582868 l -0.75065,3.674178 -1.00835,2.325822 0.759,3 -1,4 -1,2.999999 1,2 1,2 1,3 -1,4 0.54507,4 0.45493,3 -0.50043,2.771016 -0.89959,3.48037 -0.59998,2.319879 0.31268,3.049454 0.96667,2.069175 L 200,92.239127 v 4.276254 L 199.47682,97.999997 199,100.3369 198.76668,103 l 0.57886,2 0.65446,2 -0.27296,3 -0.49734,2.6884 -0.52688,2.3116 0.29718,1 0.66567,2 0.33433,3 v 3.65338 L 199.29485,127 l 0.2341,3.4994 L 200,132 l -1,3.52119 V 140 h 3 l 1,-3 -0.3904,-3.62722 L 203,131 l -1,-2 1,-2 1,-2.50669 -0.53937,-2.49331 -0.9132,-3.32767 -0.95896,-2.80178 L 201.47277,112 202,109 l 1,-3.50031 -0.92765,-2.36467 -0.0724,-3.135023 0.55182,-4 0.78711,-3.353046 -0.85969,-3.646954 -1.03042,-1.999999 -0.94003,-4 0.91375,-3.510963 0.19162,-0.463156 0.83815,-2.025881 1.54769,-3 -2,-3.354903 -0.37463,-2.645097 0.74435,-2.632096 1.08073,-2.367904 -0.45045,-2 -0.47682,-2.636915 L 202,55.999998 l -1,-2 1,-2.999999 1,-3 -1,-2 1,-2 1,-3 -0.45493,-3 L 203,34.454938 l 1,-2.928202 -2,-1.526737 1,-2 1.46456,-4 -0.46456,-4 L 203,17 l 2,-3 z"
       inkscape:path-effect="#path-effect9-2-7" />
  </g>
</svg>
