<?xml version="1.0" encoding="UTF-8" standalone="no"?>
<!-- Created with Inkscape (http://www.inkscape.org/) -->

<svg
   width="164.72662mm"
   height="153.42065mm"
   viewBox="0 0 164.72662 153.42065"
   version="1.1"
   id="svg1"
   xml:space="preserve"
   inkscape:version="1.3.2 (091e20e, 2023-11-25, custom)"
   sodipodi:docname="ageispmc.svg"
   xmlns:inkscape="http://www.inkscape.org/namespaces/inkscape"
   xmlns:sodipodi="http://sodipodi.sourceforge.net/DTD/sodipodi-0.dtd"
   xmlns:xlink="http://www.w3.org/1999/xlink"
   xmlns="http://www.w3.org/2000/svg"
   xmlns:svg="http://www.w3.org/2000/svg"><sodipodi:namedview
     id="namedview1"
     pagecolor="#ffffff"
     bordercolor="#000000"
     borderopacity="0.25"
     inkscape:showpageshadow="2"
     inkscape:pageopacity="0.0"
     inkscape:pagecheckerboard="0"
     inkscape:deskcolor="#d1d1d1"
     inkscape:document-units="mm"
     showgrid="false"
     inkscape:zoom="1.0449705"
     inkscape:cx="213.88163"
     inkscape:cy="342.59339"
     inkscape:window-width="2558"
     inkscape:window-height="1360"
     inkscape:window-x="1273"
     inkscape:window-y="0"
     inkscape:window-maximized="0"
     inkscape:current-layer="layer1"><inkscape:grid
       id="grid1"
       units="mm"
       originx="-16.561884"
       originy="-17.104898"
       spacingx="0.99999998"
       spacingy="1"
       empcolor="#0099e5"
       empopacity="0.30196078"
       color="#0099e5"
       opacity="0.14901961"
       empspacing="5"
       dotted="false"
       gridanglex="30"
       gridanglez="30"
       visible="false" /></sodipodi:namedview><defs
     id="defs1"><pattern
       inkscape:collect="always"
       xlink:href="#Strips1_1.5"
       preserveAspectRatio="xMidYMid"
       id="pattern98"
       patternTransform="matrix(2.6,0,0,2.6,7.73e-6,-9.9999999e-7)"
       x="0"
       y="0" /><pattern
       inkscape:collect="always"
       patternUnits="userSpaceOnUse"
       width="2.5"
       height="1"
       patternTransform="translate(0,0) scale(2,2)"
       preserveAspectRatio="xMidYMid"
       id="Strips1_1.5"
       style="fill:#242a2d"
       inkscape:stockid="Stripes 02 (2:3)"
       inkscape:isstock="true"
       inkscape:label="Stripes 02 (2:3)">
      <rect
   style="stroke:none"
   x="0"
   y="-0.5"
   width="1"
   height="2"
   id="rect140" />
    </pattern><linearGradient
       id="linearGradient83"
       inkscape:collect="always"><stop
         style="stop-color:#a8a8a6;stop-opacity:1;"
         offset="0"
         id="stop83" /><stop
         style="stop-color:#55595d;stop-opacity:1;"
         offset="1"
         id="stop84" /></linearGradient><linearGradient
       id="linearGradient78"
       inkscape:collect="always"><stop
         style="stop-color:#818480;stop-opacity:1;"
         offset="0.97431189"
         id="stop78" /><stop
         style="stop-color:#f8fcfe;stop-opacity:1;"
         offset="1"
         id="stop79" /></linearGradient><linearGradient
       id="linearGradient71"
       inkscape:collect="always"><stop
         style="stop-color:#818480;stop-opacity:1;"
         offset="0"
         id="stop72" /><stop
         style="stop-color:#818480;stop-opacity:0;"
         offset="1"
         id="stop73" /></linearGradient><linearGradient
       id="linearGradient70"
       inkscape:collect="always"><stop
         style="stop-color:#bdc0be;stop-opacity:1;"
         offset="0"
         id="stop70" /><stop
         style="stop-color:#414345;stop-opacity:1;"
         offset="1"
         id="stop71" /></linearGradient><linearGradient
       id="linearGradient63"
       inkscape:collect="always"><stop
         style="stop-color:#fcfeff;stop-opacity:1;"
         offset="0"
         id="stop64" /><stop
         style="stop-color:#6f757a;stop-opacity:1;"
         offset="1"
         id="stop65" /></linearGradient><linearGradient
       inkscape:collect="always"
       xlink:href="#linearGradient63"
       id="linearGradient65"
       x1="39.451458"
       y1="18.902929"
       x2="98.966293"
       y2="158.20822"
       gradientUnits="userSpaceOnUse" /><linearGradient
       inkscape:collect="always"
       xlink:href="#linearGradient70"
       id="linearGradient69"
       x1="99.250275"
       y1="18.919258"
       x2="158.1685"
       y2="158.20822"
       gradientUnits="userSpaceOnUse" /><linearGradient
       inkscape:collect="always"
       xlink:href="#linearGradient71"
       id="linearGradient73"
       x1="45.575447"
       y1="23.294117"
       x2="99.249031"
       y2="151.9409"
       gradientUnits="userSpaceOnUse" /><linearGradient
       inkscape:collect="always"
       xlink:href="#linearGradient78"
       id="linearGradient79"
       x1="99.249031"
       y1="24.251955"
       x2="131.91112"
       y2="66.618599"
       gradientUnits="userSpaceOnUse" /><linearGradient
       inkscape:collect="always"
       xlink:href="#linearGradient83"
       id="linearGradient84"
       x1="37.907879"
       y1="17.091671"
       x2="159.71208"
       y2="160.01949"
       gradientUnits="userSpaceOnUse" /><pattern
       inkscape:collect="always"
       xlink:href="#Strips1_1.5-4"
       preserveAspectRatio="xMidYMid"
       id="pattern98-2"
       patternTransform="matrix(2.6,0,0,2.6,7.73e-6,-9.9999999e-7)"
       x="0"
       y="0" /><pattern
       inkscape:collect="always"
       patternUnits="userSpaceOnUse"
       width="2.5"
       height="1"
       patternTransform="translate(0,0) scale(2,2)"
       preserveAspectRatio="xMidYMid"
       id="Strips1_1.5-4"
       style="fill:#242a2d"
       inkscape:stockid="Stripes 02 (2:3)"
       inkscape:isstock="true"
       inkscape:label="Stripes 02 (2:3)">
      <rect
   style="stroke:none"
   x="0"
   y="-0.5"
   width="1"
   height="2"
   id="rect140-8" />
    </pattern><pattern
       inkscape:collect="always"
       xlink:href="#Strips1_1.5-6"
       preserveAspectRatio="xMidYMid"
       id="pattern98-9"
       patternTransform="matrix(2.6,0,0,2.6,7.73e-6,-9.9999999e-7)"
       x="0"
       y="0" /><pattern
       inkscape:collect="always"
       patternUnits="userSpaceOnUse"
       width="2.5"
       height="1"
       patternTransform="translate(0,0) scale(2,2)"
       preserveAspectRatio="xMidYMid"
       id="Strips1_1.5-6"
       style="fill:#242a2d"
       inkscape:stockid="Stripes 02 (2:3)"
       inkscape:isstock="true"
       inkscape:label="Stripes 02 (2:3)">
      <rect
   style="stroke:none"
   x="0"
   y="-0.5"
   width="1"
   height="2"
   id="rect140-9" />
    </pattern><linearGradient
       inkscape:collect="always"
       xlink:href="#linearGradient83"
       id="linearGradient2410"
       gradientUnits="userSpaceOnUse"
       x1="37.907879"
       y1="17.091671"
       x2="159.71208"
       y2="160.01949" /><linearGradient
       inkscape:collect="always"
       xlink:href="#linearGradient83"
       id="linearGradient2411"
       gradientUnits="userSpaceOnUse"
       x1="37.907879"
       y1="17.091671"
       x2="159.71208"
       y2="160.01949" /></defs><g
     inkscape:label="Layer 1"
     inkscape:groupmode="layer"
     id="layer1"
     transform="translate(-16.561884,-17.104899)"><g
       id="g2409"><path
         d="M 118.84288,124.73606 111.4702,109.31788 H 87.099593 l -7.15718,17.02841 c 5.12431,3.85586 11.3609,7.67407 18.99935,11.58999 8.101207,-4.67723 14.626667,-8.99221 19.901117,-13.20022 z"
         style="font-variation-settings:normal;opacity:1;mix-blend-mode:multiply;vector-effect:none;fill:url(#linearGradient2410);fill-opacity:1;fill-rule:nonzero;stroke:none;stroke-width:0.0264583;stroke-linecap:round;stroke-linejoin:round;stroke-miterlimit:4;stroke-dasharray:none;stroke-dashoffset:0;stroke-opacity:1;-inkscape-stroke:none;paint-order:markers fill stroke;stop-color:#000000;stop-opacity:1"
         id="path41-9" /><path
         d="m 99.250273,18.919259 -0.0062,-0.0031 -59.779296,26.789063 c 0,55.293108 -0.434644,81.747678 59.53125,112.489778 0,0 5.16e-4,0 5.16e-4,0 l -0.01705,-6.26732 C 44.015791,123.7497 44.414343,99.501635 44.414343,48.820276 l 54.793555,-24.55509 0.02791,0.01292 z"
         style="font-variation-settings:normal;opacity:1;vector-effect:none;fill:#1c252b;fill-opacity:1;fill-rule:nonzero;stroke:none;stroke-width:0.0264583;stroke-linecap:round;stroke-linejoin:round;stroke-miterlimit:4;stroke-dasharray:none;stroke-dashoffset:0;stroke-opacity:1;-inkscape-stroke:none;paint-order:markers fill stroke;stop-color:#000000;stop-opacity:1"
         id="path27" /><path
         d="m 99.250273,18.919259 -0.01447,5.358846 53.970347,24.883235 c 0,52.4145 0.3588,71.25253 -54.225628,102.76685 -3.52e-4,-1.8e-4 -6.82e-4,-3.3e-4 -10e-4,-5.1e-4 l 0.01705,6.26732 C 158.54711,123.81337 158.1552,103.26076 158.1552,46.077291 Z"
         style="font-variation-settings:normal;opacity:1;vector-effect:none;fill:#1c252b;fill-opacity:1;stroke:none;stroke-width:0.0264583;stroke-linecap:round;stroke-linejoin:round;stroke-miterlimit:4;stroke-dasharray:none;stroke-dashoffset:0;stroke-opacity:1;-inkscape-stroke:none;paint-order:markers fill stroke;stop-color:#000000;stop-opacity:1"
         id="path26" /><path
         d="M 99.25544,17.104899 37.9212,44.591077 c 0,56.731183 -0.445515,83.873533 61.079992,115.415173 l -0.0047,-1.81125 c 0,0 -5.16e-4,0 -5.16e-4,0 C 39.030131,127.4529 39.464775,100.99833 39.464775,45.705221 l 59.779296,-26.789063 0.0062,0.0031 z"
         style="fill:#969c9f;fill-opacity:1;stroke:none;stroke-width:0.0264583;stroke-linecap:round;stroke-linejoin:round;stroke-opacity:1;paint-order:markers fill stroke"
         id="path25" /><path
         d="m 99.25544,17.104899 -0.0052,1.81436 58.90493,27.158032 c 0,57.183469 0.39191,77.736079 -59.158662,112.117709 l 0.0047,1.81125 C 160.10097,124.73028 159.69878,103.64381 159.69878,44.972965 Z"
         style="fill:#969c9f;fill-opacity:1;stroke:none;stroke-width:0.0264583;stroke-linecap:round;stroke-linejoin:round;stroke-opacity:1;paint-order:markers fill stroke"
         id="path24" /><path
         d="m 99.235803,24.278105 -0.02791,-0.01292 -54.793555,24.55509 c 0,50.681359 -0.398552,74.929425 54.565145,103.107405 l -0.01292,-4.76922 C 48.504005,121.28834 48.869885,99.026342 48.869885,52.496021 l 50.305457,-22.543327 0.04444,0.02067 z"
         style="font-variation-settings:normal;opacity:1;vector-effect:none;fill:url(#linearGradient65);fill-opacity:1;stroke:none;stroke-width:0.0264583;stroke-linecap:round;stroke-linejoin:round;stroke-miterlimit:4;stroke-dasharray:none;stroke-dashoffset:0;stroke-opacity:1;-inkscape-stroke:none;paint-order:markers fill stroke;stop-color:#000000;stop-opacity:1"
         id="path29" /><path
         d="m 99.235803,24.278105 -0.01602,5.695259 49.530827,22.835816 c 0,48.12119 0.32936,65.4163 -49.784042,94.34928 l 0.01292,4.76922 c 3.52e-4,1.8e-4 6.82e-4,3.3e-4 10e-4,5.1e-4 54.584432,-31.51432 54.225632,-50.35235 54.225632,-102.76685 z"
         style="font-variation-settings:normal;opacity:1;vector-effect:none;fill:url(#linearGradient69);fill-opacity:1;stroke:none;stroke-width:0.0264583;stroke-linecap:round;stroke-linejoin:round;stroke-miterlimit:4;stroke-dasharray:none;stroke-dashoffset:0;stroke-opacity:1;-inkscape-stroke:none;paint-order:markers fill stroke;stop-color:#000000;stop-opacity:1"
         id="path28" /><path
         d="m 99.219784,29.973364 -0.04444,-0.02067 -50.305457,22.543327 c 0,46.530321 -0.36588,68.792319 50.096684,94.662439 l -0.01137,-4.1429 C 52.060799,118.97458 52.400419,98.286198 52.400419,55.045736 l 46.749085,-20.949626 0.05891,0.02739 z"
         style="font-variation-settings:normal;opacity:1;vector-effect:none;fill:url(#linearGradient73);fill-opacity:1;stroke:none;stroke-width:0.0264583;stroke-linecap:round;stroke-linejoin:round;stroke-miterlimit:4;stroke-dasharray:none;stroke-dashoffset:0;stroke-opacity:1;-inkscape-stroke:none;paint-order:markers fill stroke;stop-color:#000000;stop-opacity:1"
         id="path31" /><path
         d="m 99.219784,29.973364 -0.01137,4.150135 46.011146,21.213175 c 0,44.718996 0.3065,60.791506 -46.263844,87.678886 0,0 -5.17e-4,0 -5.17e-4,0 l 0.01137,4.1429 C 149.07997,118.22548 148.75061,100.93037 148.75061,52.80918 Z"
         style="font-variation-settings:normal;opacity:1;vector-effect:none;fill:url(#linearGradient79);fill-opacity:1;stroke:none;stroke-width:0.0264583;stroke-linecap:round;stroke-linejoin:round;stroke-miterlimit:4;stroke-dasharray:none;stroke-dashoffset:0;stroke-opacity:1;-inkscape-stroke:none;paint-order:markers fill stroke;stop-color:#000000;stop-opacity:1"
         id="path30" /><path
         d="m 99.208415,34.123499 -0.05891,-0.02739 -46.749085,20.949626 c 0,43.240462 -0.33962,63.928845 46.554781,87.969825 l -0.01344,-5.07928 C 91.303313,134.02036 85.06672,130.20215 79.942407,126.34629 v 0 c -1.363548,-1.02602 -2.647112,-2.05576 -3.855062,-3.08973 v 0 c -1.930415,-1.65239 -3.670011,-3.31927 -5.234305,-5.009 v 0 c -1.95047,-2.10686 -3.634972,-4.25186 -5.083411,-6.45335 v 0 c -1.016956,-1.54568 -1.927759,-3.11801 -2.728516,-4.72736 v 0 C 56.646359,94.214732 56.728837,79.110071 56.728837,58.171126 l 42.389144,-18.996256 0.07648,0.03514 z"
         style="font-variation-settings:normal;opacity:1;vector-effect:none;fill:#1c252b;fill-opacity:1;stroke:none;stroke-width:0.0264583;stroke-linecap:round;stroke-linejoin:round;stroke-miterlimit:4;stroke-dasharray:none;stroke-dashoffset:0;stroke-opacity:1;-inkscape-stroke:none;paint-order:markers fill stroke;stop-color:#000000;stop-opacity:1"
         id="path33" /><path
         d="m 105.35068,42.048596 29.5801,63.923234 c 6.02626,-12.141735 5.96036,-26.262515 5.96036,-47.537154 z"
         style="font-variation-settings:normal;opacity:1;vector-effect:none;fill:url(#linearGradient2411);fill-opacity:1;stroke:none;stroke-width:0.0264583;stroke-linecap:round;stroke-linejoin:round;stroke-miterlimit:4;stroke-dasharray:none;stroke-dashoffset:0;stroke-opacity:1;-inkscape-stroke:none;paint-order:markers fill stroke;stop-color:#000000;stop-opacity:1"
         id="path81" /><path
         d="m 105.35068,42.048596 29.5801,63.923234 c 6.02626,-12.141735 5.96036,-26.262515 5.96036,-47.537154 z"
         style="font-variation-settings:normal;opacity:1;vector-effect:none;fill:url(#pattern98);fill-opacity:1;stroke:none;stroke-width:0.0264583;stroke-linecap:round;stroke-linejoin:round;stroke-miterlimit:4;stroke-dasharray:none;stroke-dashoffset:0;stroke-opacity:1;-inkscape-stroke:none;paint-order:markers fill stroke;stop-color:#000000;stop-opacity:1"
         id="path81-9" /><path
         d="m 99.208415,34.123499 -0.01395,5.086511 6.156215,2.838586 35.54046,16.38608 c 0,21.274639 0.0659,35.395419 -5.96036,47.537154 -0.8751,1.76314 -1.88148,3.4857 -3.03289,5.18108 -1.34035,1.97357 -2.87286,3.91388 -4.64313,5.84202 -1.47455,1.60605 -3.12636,3.20634 -4.93716,4.81262 -1.09608,0.97229 -2.24531,1.94765 -3.47472,2.92851 -5.27445,4.208 -11.79992,8.523 -19.901113,13.20022 l 0.01344,5.07928 h 5.17e-4 C 145.52601,116.12821 145.21956,100.05563 145.21956,55.336674 Z"
         style="fill:#1c252b;stroke:none;stroke-width:0.0264583;stroke-linecap:round;stroke-linejoin:round;stroke-opacity:1;paint-order:markers fill stroke"
         id="path79" /><path
         d="M 63.041113,107.06685 93.328153,41.769543 56.728837,58.171126 c 0,20.938945 -0.08248,36.043606 6.312276,48.895724 z"
         style="fill:url(#linearGradient84);stroke:none;stroke-width:0.0264583;stroke-linecap:round;stroke-linejoin:round;stroke-opacity:1;paint-order:markers fill stroke"
         id="path42" /><path
         d="M 63.041113,107.06685 93.328153,41.769543 56.728837,58.171126 c 0,20.938945 -0.08248,36.043606 6.312276,48.895724 z"
         style="font-variation-settings:normal;opacity:1;vector-effect:none;fill:url(#pattern98);fill-opacity:1;stroke:none;stroke-width:0.0264583;stroke-linecap:round;stroke-linejoin:round;stroke-miterlimit:4;stroke-dasharray:none;stroke-dashoffset:0;stroke-opacity:1;-inkscape-stroke:none;paint-order:markers fill stroke;stop-color:#000000;stop-opacity:1"
         id="path42-6" /><path
         d="m 99.194462,39.21001 -0.07648,-0.03514 -5.789828,2.594673 -30.28704,65.297307 c 0.800757,1.60935 1.71156,3.18168 2.728516,4.72736 L 99.189811,40.891561 Z"
         style="fill:#1c252b;fill-opacity:1;stroke:none;stroke-width:0.0264583;stroke-linecap:round;stroke-linejoin:round;stroke-opacity:1;paint-order:markers fill stroke"
         id="path35" /><path
         d="m 131.89789,111.15291 c 1.15141,-1.69538 2.15779,-3.41794 3.03289,-5.18108 l -29.5801,-63.923234 -6.156218,-2.838586 -0.0047,1.681551 z"
         style="fill:#1c252b;stroke:none;stroke-width:0.0264583;stroke-linecap:round;stroke-linejoin:round;stroke-opacity:1;paint-order:markers fill stroke"
         id="path80" /><path
         d="M 99.189811,40.891561 65.769629,111.79421 c 1.448439,2.20149 3.132941,4.34649 5.083411,6.45335 L 99.20273,58.769023 Z"
         style="opacity:1;fill:#f25963;fill-opacity:1;stroke:none;stroke-width:0.0264583;stroke-linecap:round;stroke-linejoin:round;stroke-opacity:1;paint-order:markers fill stroke"
         id="path37" /><path
         d="m 99.189811,40.891561 0.01292,17.877462 28.052029,58.225907 c 1.77027,-1.92814 3.30278,-3.86844 4.64313,-5.84202 z"
         style="opacity:1;fill:#9f0a15;fill-opacity:1;stroke:none;stroke-width:0.0264583;stroke-linecap:round;stroke-linejoin:round;stroke-opacity:1;paint-order:markers fill stroke"
         id="path36" /><path
         d="M 118.84288,124.73606 111.4702,109.31788 H 87.099601 l -7.157186,17.02841 c 5.124313,3.85586 11.360906,7.67407 18.999352,11.58999 8.101203,-4.67723 14.626663,-8.99221 19.901113,-13.20022 z"
         style="font-variation-settings:normal;opacity:1;mix-blend-mode:multiply;vector-effect:none;fill:url(#pattern98);fill-opacity:1;fill-rule:nonzero;stroke:none;stroke-width:0.0264583;stroke-linecap:round;stroke-linejoin:round;stroke-miterlimit:4;stroke-dasharray:none;stroke-dashoffset:0;stroke-opacity:1;-inkscape-stroke:none;paint-order:markers fill stroke;stop-color:#000000;stop-opacity:1"
         id="path41" /><path
         d="m 107.72469,99.096277 -8.449613,0.07235 v 5.17e-4 l -8.45013,0.07235 -2.499589,5.771746 22.091162,-0.18965 z"
         style="opacity:1;fill:#7f0911;fill-opacity:1;stroke:none;stroke-width:0.0264583;stroke-linecap:round;stroke-linejoin:round;stroke-opacity:1;paint-order:markers fill stroke"
         id="path46" /><path
         d="m 103.96006,91.087463 -4.684983,8.081161 8.449613,-0.07235 z"
         style="opacity:1;fill:#c81723;fill-opacity:1;stroke:none;stroke-width:0.0264583;stroke-linecap:round;stroke-linejoin:round;stroke-opacity:1;paint-order:markers fill stroke"
         id="path45" /><path
         d="m 94.357031,91.087463 -3.531567,8.154025 8.449613,-0.07235 4.684983,-8.081678 z"
         style="opacity:1;fill:#ff5c64;fill-opacity:1;stroke:none;stroke-width:0.0264583;stroke-linecap:round;stroke-linejoin:round;stroke-opacity:1;paint-order:markers fill stroke"
         id="path44" /><path
         d="M 98.833244,72.477747 76.087345,123.25656 c 1.20795,1.03397 2.491514,2.06371 3.855062,3.08973 l 7.157186,-17.02841 H 111.4702 l 7.37268,15.41818 c 1.22942,-0.98086 2.37864,-1.95622 3.47472,-2.92851 z m -4.476213,18.609716 h 9.603029 l 6.45646,13.736117 -22.091162,0.18965 2.499589,-5.771742 h 5.17e-4 z"
         style="opacity:1;fill:#1c252b;fill-opacity:1;stroke:none;stroke-width:0.0264583;stroke-linecap:round;stroke-linejoin:round;stroke-opacity:1;paint-order:markers fill stroke"
         id="path40" /><path
         d="M 99.20273,58.769023 70.85304,118.24756 c 1.564294,1.68973 3.30389,3.35661 5.234305,5.009 L 98.833244,72.477747 Z"
         style="opacity:1;fill:#940b15;fill-opacity:1;stroke:none;stroke-width:0.0264583;stroke-linecap:round;stroke-linejoin:round;stroke-opacity:1;paint-order:markers fill stroke"
         id="path39" /><path
         d="M 99.20273,58.769023 98.833244,72.477747 122.3176,121.80755 c 1.8108,-1.60628 3.4626,-3.20656 4.93716,-4.81262 z"
         style="opacity:1;fill:#f62031;fill-opacity:1;stroke:none;stroke-width:0.0264583;stroke-linecap:round;stroke-linejoin:round;stroke-opacity:1;paint-order:markers fill stroke"
         id="path38" /></g><g
       id="g2406"
       transform="matrix(1.2987885,0,0,1.2987885,-25.680109,-100.59037)"><rect
         style="font-variation-settings:normal;opacity:1;fill:#1c252b;fill-opacity:1;fill-rule:nonzero;stroke:none;stroke-width:0.499999;stroke-linecap:round;stroke-linejoin:round;stroke-miterlimit:4;stroke-dasharray:none;stroke-dashoffset:0;stroke-opacity:1;paint-order:markers fill stroke"
         id="rect2405"
         width="33.569786"
         height="13.076151"
         x="79.964584"
         y="186.03632"
         ry="6.5380754" /><g
         id="g2404"
         transform="translate(-46.112033,20.433388)"><g
           id="g2403"><path
             d="m 198.1943,117.80631 c -8.48932,32.34969 -48.724,40.44784 -43.05835,61.6784 1.92877,2.2621 31.15362,25.50847 46.44161,-14.09888 l -3.02514,1.1188 c 7.84043,-9.34991 7.37614,-18.23112 6.35569,-24.1701 -1.4082,1.24676 -2.52714,1.81893 -3.58066,2.2381 1.13176,-3.5677 3.12604,-17.8381 -3.13315,-26.76632 z m 0.21395,8.26926 c 0.631,3.06233 0.86108,5.87092 0.77307,8.4832 0,0 0,0 0,0 -0.68529,20.34267 -21.72527,28.14241 -40.90499,40.3841 1.32708,-15.75806 31.50344,-23.12717 40.13192,-48.8673 z"
             style="opacity:1;fill:#1c252b;fill-opacity:1;stroke:none;stroke-width:0.499999;stroke-linecap:round;stroke-linejoin:round;paint-order:markers fill stroke"
             id="path125" /></g><path
           d="m 197.11995,169.10085 c -11.54804,5.0426 -22.56447,11.12467 -36.61327,11.27942 16.38545,3.69709 22.9005,1.3555 36.61327,-11.27942 z"
           style="opacity:1;fill:#9ba0a4;fill-opacity:1;stroke:none;stroke-width:0.499999;stroke-linecap:round;stroke-linejoin:round;paint-order:markers fill stroke"
           id="path132" /><path
           d="m 197.11995,169.10085 c -13.71277,12.63492 -20.22782,14.97651 -36.61327,11.27942 16.33591,9.7323 27.9052,3.89793 36.61327,-11.27942 z"
           style="opacity:1;fill:#828484;fill-opacity:1;stroke:none;stroke-width:0.499999;stroke-linecap:round;stroke-linejoin:round;paint-order:markers fill stroke"
           id="path131" /><path
           d="m 202.13308,147.61638 c -16.59998,18.42002 -34.78248,22.01684 -44.10635,31.0627 20.9791,-8.39277 41.78397,-16.83971 44.10635,-31.0627 z"
           style="opacity:1;fill:#f8fcfe;fill-opacity:1;stroke:none;stroke-width:0.499999;stroke-linecap:round;stroke-linejoin:round;paint-order:markers fill stroke"
           id="path130" /><path
           d="m 202.13308,147.61638 c -2.32238,14.22299 -23.12725,22.66993 -44.10635,31.0627 3.67875,-0.57495 28.66613,-3.11466 39.05395,-15.71015 3.31469,-4.01915 4.94711,-8.85864 5.0524,-15.35255 z"
           style="opacity:1;fill:#9ba0a4;fill-opacity:1;stroke:none;stroke-width:0.499999;stroke-linecap:round;stroke-linejoin:round;paint-order:markers fill stroke"
           id="path129" /><path
           d="m 199.18132,134.55877 c -3.44117,14.97814 -35.27247,30.77173 -40.90499,40.3841 19.17972,-12.24169 40.2197,-20.04143 40.90499,-40.3841 z"
           style="opacity:1;fill:#abafb3;fill-opacity:1;stroke:none;stroke-width:0.499999;stroke-linecap:round;stroke-linejoin:round;paint-order:markers fill stroke"
           id="path127" /><path
           d="m 198.40825,126.07557 c -8.62848,25.74013 -38.80484,33.10924 -40.13192,48.8673 5.63252,-9.61237 37.46382,-25.40596 40.90499,-40.3841 0.088,-2.61228 -0.14207,-5.42087 -0.77307,-8.4832 z"
           style="opacity:1;fill:#f8fcfe;fill-opacity:1;stroke:none;stroke-width:0.499999;stroke-linecap:round;stroke-linejoin:round;paint-order:markers fill stroke"
           id="path126" /></g><g
         id="g2402"
         transform="translate(4.4783217,-1.1957226)"><path
           d="m 35.318699,139.43542 c 8.48932,32.34969 48.724,40.44784 43.05835,61.6784 -1.92877,2.2621 -31.15362,25.50847 -46.44161,-14.09888 l 3.02514,1.1188 c -7.84043,-9.34991 -7.37614,-18.23112 -6.35569,-24.1701 1.4082,1.24676 2.52714,1.81893 3.58066,2.2381 -1.13176,-3.5677 -3.12604,-17.8381 3.13315,-26.76632 z m -0.21395,8.26926 c -0.631,3.06233 -0.86108,5.87092 -0.77307,8.4832 0,0 0,0 0,0 0.68529,20.34267 21.72527,28.14241 40.90499,40.3841 -1.32708,-15.75806 -31.50344,-23.12717 -40.13192,-48.8673 z"
           style="fill:#1c252b;fill-opacity:1;stroke:none;stroke-width:0.499999;stroke-linecap:round;stroke-linejoin:round;paint-order:markers fill stroke"
           id="path125-7" /><path
           d="m 36.393049,190.72996 c 11.54804,5.0426 22.56447,11.12467 36.61327,11.27942 -16.38545,3.69709 -22.9005,1.3555 -36.61327,-11.27942 z"
           style="fill:#9ba0a4;fill-opacity:1;stroke:none;stroke-width:0.499999;stroke-linecap:round;stroke-linejoin:round;paint-order:markers fill stroke"
           id="path132-2" /><path
           d="m 36.393049,190.72996 c 13.71277,12.63492 20.22782,14.97651 36.61327,11.27942 -16.33591,9.7323 -27.9052,3.89793 -36.61327,-11.27942 z"
           style="fill:#828484;fill-opacity:1;stroke:none;stroke-width:0.499999;stroke-linecap:round;stroke-linejoin:round;paint-order:markers fill stroke"
           id="path131-6" /><path
           d="m 31.379919,169.24549 c 16.59998,18.42002 34.78248,22.01684 44.10635,31.0627 -20.9791,-8.39277 -41.78397,-16.83971 -44.10635,-31.0627 z"
           style="fill:#f8fcfe;fill-opacity:1;stroke:none;stroke-width:0.499999;stroke-linecap:round;stroke-linejoin:round;paint-order:markers fill stroke"
           id="path130-9" /><path
           d="m 31.379919,169.24549 c 2.32238,14.22299 23.12725,22.66993 44.10635,31.0627 -3.67875,-0.57495 -28.66613,-3.11466 -39.05395,-15.71015 -3.31469,-4.01915 -4.94711,-8.85864 -5.0524,-15.35255 z"
           style="fill:#9ba0a4;fill-opacity:1;stroke:none;stroke-width:0.499999;stroke-linecap:round;stroke-linejoin:round;paint-order:markers fill stroke"
           id="path129-6" /><path
           d="m 34.331679,156.18788 c 3.44117,14.97814 35.27247,30.77173 40.90499,40.3841 -19.17972,-12.24169 -40.2197,-20.04143 -40.90499,-40.3841 z"
           style="fill:#abafb3;fill-opacity:1;stroke:none;stroke-width:0.499999;stroke-linecap:round;stroke-linejoin:round;paint-order:markers fill stroke"
           id="path127-1" /><path
           d="m 35.104749,147.70468 c 8.62848,25.74013 38.80484,33.10924 40.13192,48.8673 -5.63252,-9.61237 -37.46382,-25.40596 -40.90499,-40.3841 -0.088,-2.61228 0.14207,-5.42087 0.77307,-8.4832 z"
           style="fill:#f8fcfe;fill-opacity:1;stroke:none;stroke-width:0.499999;stroke-linecap:round;stroke-linejoin:round;paint-order:markers fill stroke"
           id="path126-9" /></g><g
         id="g2405"
         transform="translate(-71.435869,-1.4322981)"><path
           sodipodi:type="star"
           style="font-variation-settings:normal;opacity:1;vector-effect:none;fill:#1c252b;fill-opacity:1;fill-rule:nonzero;stroke:none;stroke-width:0.0264583;stroke-linecap:round;stroke-linejoin:round;stroke-miterlimit:4;stroke-dasharray:none;stroke-dashoffset:0;stroke-opacity:1;-inkscape-stroke:none;paint-order:markers fill stroke"
           id="path99"
           inkscape:flatsided="false"
           sodipodi:sides="5"
           sodipodi:cx="44.401024"
           sodipodi:cy="185.08696"
           sodipodi:r1="20.616348"
           sodipodi:r2="42.074181"
           sodipodi:arg1="1.0471976"
           sodipodi:arg2="1.6755161"
           inkscape:rounded="0"
           inkscape:randomized="0"
           d="m 54.709197,202.94124 -14.706123,23.98941 -9.39708,-26.52276 -27.3597291,-6.57322 22.3207881,-17.13314 -2.203119,-28.05188 23.192086,15.9339 25.998126,-10.7638 -7.98729,26.98083 18.270844,21.39949 z"
           transform="matrix(0.51113445,0.29510361,-0.29510361,0.51113445,199.30045,81.718174)" /><path
           style="font-variation-settings:normal;opacity:1;vector-effect:none;fill:#abafb3;fill-opacity:1;fill-rule:nonzero;stroke:none;stroke-width:0.0264583;stroke-linecap:round;stroke-linejoin:round;stroke-miterlimit:4;stroke-dasharray:none;stroke-dashoffset:0;stroke-opacity:1;-inkscape-stroke:none;paint-order:markers fill stroke"
           d="m 167.37552,170.06863 0.0179,16.97225 5.39062,-5.63778 z"
           id="path100" /><path
           style="font-variation-settings:normal;opacity:1;vector-effect:none;fill:#c1c4c7;fill-opacity:1;fill-rule:nonzero;stroke:none;stroke-width:0.0264583;stroke-linecap:round;stroke-linejoin:round;stroke-miterlimit:4;stroke-dasharray:none;stroke-dashoffset:0;stroke-opacity:1;-inkscape-stroke:none;paint-order:markers fill stroke"
           d="m 167.39343,187.04088 5.39062,-5.63778 12.45106,1.64128 z"
           id="path101" /><path
           style="font-variation-settings:normal;opacity:1;vector-effect:none;fill:#f8fcfe;fill-opacity:1;fill-rule:nonzero;stroke:none;stroke-width:0.0264583;stroke-linecap:round;stroke-linejoin:round;stroke-miterlimit:4;stroke-dasharray:none;stroke-dashoffset:0;stroke-opacity:1;-inkscape-stroke:none;paint-order:markers fill stroke"
           d="m 167.39343,187.04088 -0.0179,-16.97225 -5.40854,11.33447 z"
           id="path102" /><path
           style="font-variation-settings:normal;opacity:1;vector-effect:none;fill:#f8fcfe;fill-opacity:1;fill-rule:nonzero;stroke:none;stroke-width:0.0264583;stroke-linecap:round;stroke-linejoin:round;stroke-miterlimit:4;stroke-dasharray:none;stroke-dashoffset:0;stroke-opacity:1;-inkscape-stroke:none;paint-order:markers fill stroke"
           d="m 167.39343,187.04088 -5.42645,-5.63778 -12.45105,1.64128 z"
           id="path103" /><path
           style="font-variation-settings:normal;opacity:1;vector-effect:none;fill:#abafb3;fill-opacity:1;fill-rule:nonzero;stroke:none;stroke-width:0.0264583;stroke-linecap:round;stroke-linejoin:round;stroke-miterlimit:4;stroke-dasharray:none;stroke-dashoffset:0;stroke-opacity:1;-inkscape-stroke:none;paint-order:markers fill stroke"
           d="m 167.39344,187.04088 -17.87751,-3.9965 9.10839,8.64637 z"
           id="path104" /><path
           style="font-variation-settings:normal;opacity:1;vector-effect:none;fill:#f8fcfe;fill-opacity:1;fill-rule:nonzero;stroke:none;stroke-width:0.0264583;stroke-linecap:round;stroke-linejoin:round;stroke-miterlimit:4;stroke-dasharray:none;stroke-dashoffset:0;stroke-opacity:1;-inkscape-stroke:none;paint-order:markers fill stroke"
           d="m 167.39343,187.04088 -11.05575,16.9987 2.28664,-12.34883 z"
           id="path105" /><path
           style="font-variation-settings:normal;opacity:1;vector-effect:none;fill:#9ba0a4;fill-opacity:1;fill-rule:nonzero;stroke:none;stroke-width:0.0264583;stroke-linecap:round;stroke-linejoin:round;stroke-miterlimit:4;stroke-dasharray:none;stroke-dashoffset:0;stroke-opacity:1;-inkscape-stroke:none;paint-order:markers fill stroke"
           d="m 167.39343,187.04088 -0.0179,11.00799 -11.03784,5.99071 z"
           id="path106" /><path
           style="font-variation-settings:normal;opacity:1;vector-effect:none;fill:#9ba0a4;fill-opacity:1;fill-rule:nonzero;stroke:none;stroke-width:0.0264583;stroke-linecap:round;stroke-linejoin:round;stroke-miterlimit:4;stroke-dasharray:none;stroke-dashoffset:0;stroke-opacity:1;-inkscape-stroke:none;paint-order:markers fill stroke"
           d="m 167.39344,187.04088 17.84167,-3.9965 -9.10839,8.64637 z"
           id="path107" /><path
           style="font-variation-settings:normal;opacity:1;vector-effect:none;fill:#c1c4c7;fill-opacity:1;fill-rule:nonzero;stroke:none;stroke-width:0.0264583;stroke-linecap:round;stroke-linejoin:round;stroke-miterlimit:4;stroke-dasharray:none;stroke-dashoffset:0;stroke-opacity:1;-inkscape-stroke:none;paint-order:markers fill stroke"
           d="m 167.39343,187.04088 8.73329,4.64987 2.28663,12.34883 z"
           id="path108" /><path
           style="font-variation-settings:normal;opacity:1;vector-effect:none;fill:#828484;fill-opacity:1;fill-rule:nonzero;stroke:none;stroke-width:0.0264583;stroke-linecap:round;stroke-linejoin:round;stroke-miterlimit:4;stroke-dasharray:none;stroke-dashoffset:0;stroke-opacity:1;-inkscape-stroke:none;paint-order:markers fill stroke"
           d="m 167.39343,187.04088 -0.0179,11.00799 11.03783,5.99071 z"
           id="path109" /></g></g></g></svg>
