<?xml version="1.0" encoding="UTF-8" standalone="no"?>
<!-- Created with Inkscape (http://www.inkscape.org/) -->

<svg
   width="139.8154mm"
   height="228.3775mm"
   viewBox="0 0 139.8154 228.3775"
   version="1.1"
   id="svg1"
   xml:space="preserve"
   inkscape:version="1.3.2 (091e20e, 2023-11-25, custom)"
   sodipodi:docname="digestive_system.svg"
   xmlns:inkscape="http://www.inkscape.org/namespaces/inkscape"
   xmlns:sodipodi="http://sodipodi.sourceforge.net/DTD/sodipodi-0.dtd"
   xmlns="http://www.w3.org/2000/svg"
   xmlns:svg="http://www.w3.org/2000/svg"><sodipodi:namedview
     id="namedview1"
     pagecolor="#ffffff"
     bordercolor="#000000"
     borderopacity="0.25"
     inkscape:showpageshadow="2"
     inkscape:pageopacity="0.0"
     inkscape:pagecheckerboard="0"
     inkscape:deskcolor="#d1d1d1"
     inkscape:document-units="mm"
     showgrid="false"
     inkscape:zoom="1.0779871"
     inkscape:cx="44.991262"
     inkscape:cy="430.43187"
     inkscape:window-width="2558"
     inkscape:window-height="1360"
     inkscape:window-x="1243"
     inkscape:window-y="0"
     inkscape:window-maximized="0"
     inkscape:current-layer="layer1"><inkscape:grid
       id="grid1"
       units="mm"
       originx="-77.900002"
       originy="-44.622486"
       spacingx="0.99999998"
       spacingy="1"
       empcolor="#0099e5"
       empopacity="0.30196078"
       color="#0099e5"
       opacity="0.14901961"
       empspacing="5"
       dotted="false"
       gridanglex="30"
       gridanglez="30"
       visible="false" /></sodipodi:namedview><defs
     id="defs1"><rect
       x="170.07874"
       y="-37.795277"
       width="793.70081"
       height="151.18111"
       id="rect11" /><rect
       x="340.1575"
       y="56.692913"
       width="245.6693"
       height="132.28346"
       id="rect10" /><rect
       x="213.36063"
       y="0"
       width="385.39874"
       height="175.32677"
       id="rect9" /><rect
       x="255.1051"
       y="0"
       width="727.57208"
       height="188.97636"
       id="rect8" /><rect
       x="344.15997"
       y="185.53098"
       width="297.77722"
       height="77.923012"
       id="rect7" /><rect
       x="170.07874"
       y="-37.795277"
       width="793.70081"
       height="151.18111"
       id="rect11-5" /><rect
       x="170.07874"
       y="-37.795277"
       width="265.8522"
       height="44.917034"
       id="rect11-5-0" /><rect
       x="170.07874"
       y="-37.795277"
       width="265.8522"
       height="44.917034"
       id="rect11-5-0-2" /><rect
       x="170.07874"
       y="-37.795277"
       width="265.8522"
       height="44.917034"
       id="rect11-5-0-2-1" /></defs><g
     inkscape:label="Layer 1"
     inkscape:groupmode="layer"
     id="layer1"
     transform="translate(-77.900002,-44.622486)"><g
       id="g6"
       transform="matrix(0.86348528,0,0,0.86348528,264.50538,12.781084)"
       style="stroke-width:1.1581;stroke-dasharray:none"><path
         style="opacity:1;fill:#ff8080;fill-opacity:1;stroke:#000000;stroke-width:1.1581;stroke-linecap:round;stroke-linejoin:round;stroke-dasharray:none;stroke-opacity:1;paint-order:markers fill stroke"
         d="m -131.44226,127.78677 c 3.05064,-1.04617 6.01388,-2.22099 8.33535,-4.34036 4.86377,-7.22478 15.52614,-3.33724 16.63658,-1.28257 2.0511,2.46945 3.88337,6.64923 2.47993,12.98881 -0.27251,1.23101 -5.98026,3.3762 -6.51887,4.77337"
         id="path6"
         sodipodi:nodetypes="cccsc" /><path
         style="opacity:1;fill:#ff8080;fill-opacity:1;stroke:#000000;stroke-width:1.1581;stroke-linecap:round;stroke-linejoin:round;stroke-dasharray:none;stroke-opacity:1;paint-order:markers fill stroke"
         d="m -96.128817,150.16133 c 0.986782,9.67845 -3.837736,16.23291 -3.830166,23.58318 0.001,1.4031 -1.121997,2.62978 -0.577187,4.13664 -0.67775,4.29925 -2.47903,4.04044 -3.90247,7.24051 -0.79143,1.44795 -2.83662,2.93721 -3.1893,3.96083 -1.01928,2.95833 -2.06104,3.05036 -2.75095,2.55121 -1.81921,-6.50439 3.82141,-9.60727 1.37937,-12.18286 -0.73782,-3.84775 1.54721,-3.30305 2.63061,-6.02921 -1.57307,-11.52022 -1.84539,-20.67071 -0.96187,-22.56071 -1.50045,13.39112 1.72088,27.34631 -11.86743,39.29338 -5.34288,2.11548 -11.07222,1.38715 -17.30205,-3.02434 -16.9819,-30.94044 -19.27668,-43.66519 0.77638,-58.77236 5.52314,-1.30283 7.59215,-0.10918 9.87104,0.93278 6.06306,2.05304 9.56466,4.89809 12.08925,8.04523 l 16.858393,3.26473 c 4.17374,3.48168 5.08984,5.6804 2.15324,8.72238 -9.454393,3.23896 -21.029903,-3.77495 -26.886283,-3.94188 -0.19404,10.90691 -7.44512,22.38247 -6.87646,30.3485 0.83729,-10.5525 5.35836,-20.18295 10.53651,-29.64891"
         id="path5"
         sodipodi:nodetypes="csccscccccccccccccc" /></g><path
       d="m 185.53236,138.6836 c -0.81763,20.3539 -5.28252,40.77164 -18.43662,43.25621 -15.99535,3.02123 -18.83368,-4.70656 -27.70735,-12.09488 -4.14223,-3.44887 -10.11396,-25.23238 -7.38944,-31.34002"
       style="opacity:0.5;fill:#aad400;fill-opacity:1;stroke:none;stroke-width:2;stroke-linecap:round;stroke-linejoin:round;stroke-opacity:1;paint-order:stroke markers fill"
       id="path1"
       sodipodi:nodetypes="cssc" /><path
       style="fill:#333333;fill-opacity:1;stroke:#000000;stroke-width:2.12353;stroke-linecap:round;stroke-linejoin:round;stroke-opacity:1;paint-order:stroke markers fill"
       d="m 185.01023,73.036581 c 5.59615,-1.558928 8.15454,-3.725574 8.8439,-6.266128 3.3749,-1.512509 6.72347,-3.090912 11.05487,-2.211572 6.35219,-21.096907 -11.74201,-22.040757 -19.43758,-14.689073 -2.39263,2.285726 -2.58769,6.66941 -2.4217,11.363983 0.14472,4.092668 0.38696,8.421616 1.96051,11.80279 z"
       id="path2"
       sodipodi:nodetypes="cccssc" /><path
       id="path3"
       style="opacity:1;fill:#5599ff;fill-opacity:1;stroke:#000000;stroke-width:2;stroke-linecap:round;stroke-linejoin:round;stroke-opacity:1;paint-order:stroke markers fill"
       d="m 202.76437,68.723971 -2.7249,1.460376 c 4.01443,19.572991 7.53224,41.327273 -16.40572,55.239523 2.14226,8.02415 2.26061,14.05823 1.43454,24.00163 -2.30629,21.11616 -9.57446,29.47107 -17.97255,32.5143 -9.69483,3.51313 -20.89553,-0.75657 -27.70735,-12.09487 -1.35585,-2.25681 -4.64626,-9.21883 -5.47357,-11.75174 -5.53066,-20.66301 -0.61725,-28.67671 9.73688,-34.94877 7.44432,-4.5094 14.28971,-9.73217 24.81037,-9.60096 4.35038,0.0543 10.25495,3.13725 13.25707,6.74842 15.73312,-9.16094 18.81001,-26.287946 13.5816,-47.56712 l -2.47685,1.327567 0.24546,8.416024 c -10.68968,1.241095 -29.74113,18.998289 -12.51758,25.771549 0.016,0.0643 0.026,0.12742 0.0419,0.19172 -7.89697,-0.6043 -9.49035,-1.67175 -13.38316,-1.7203 -12.5164,-0.1561 -17.47636,4.83896 -26.45575,10.06656 -12.92599,7.52523 -19.2567,18.13481 -12.44679,43.57719 0.77508,2.373 3.93237,9.20692 5.09943,11.38794 7.99465,14.94071 22.90328,21.41592 35.50998,16.65376 11.59606,-4.3804 12.66331,-8.76635 12.67726,-13.18783 0.7727,9.05801 2.58906,19.07729 5.2157,28.75329 3.51355,6.0245 5.15052,12.67798 6.84721,19.48118 2.51676,10.09144 3.98652,20.80692 2.35688,32.67532 -6.32949,6.45568 -11.12411,7.93079 -18.01443,10.88126 -1.09571,0.46919 -2.43582,1.62122 -3.5264,2.12235 -1.26347,3.47376 4.41018,2.47798 8.5264,2.87765 9.69382,-0.15171 8.98312,-1.42122 14,-2 3.01481,-0.3478 10.6052,1.49387 13.86417,-0.62728 0.69533,-3.31005 0.76497,-8.57898 -1.22731,-13.00851 -0.16436,-7.60161 -0.30019,-12.5546 0.36314,-17.62788 2.63955,-20.18782 8.99115,-25.18853 -4.90395,-38.21006 -0.55982,-4.53493 1.32628,1.71245 -0.72789,-5.9309 6.79731,-9.66738 8.16849,-22.51654 4.65495,-34.0372 2.39784,-0.1968 6.75388,-5.08803 6.3603,-12.80758 -0.29709,-5.82693 -1.46611,-10.86919 -6.23737,-14.25058 -0.50408,-3.02844 -3.86987,-2.85159 -3.06814,-9.79747 2.6489,-2.2848 22.67012,-32.419169 -0.12299,-49.650203 z"
       sodipodi:nodetypes="ccccsscssccccccssccsccscsccsccscccscccc" /><path
       style="opacity:0.5;fill:#5599ff;fill-opacity:1;stroke:#000000;stroke-width:1;stroke-linecap:round;stroke-linejoin:round;stroke-dasharray:none;stroke-opacity:1;paint-order:markers fill stroke"
       d="m 195.80724,96.011814 c -5.00458,-14.699166 3.40785,-16.229246 12.29394,-17.294434 9.19587,3.192632 8.48771,8.024093 6.78919,13.019428 1.48304,3.691949 3.28621,7.268988 -3.30286,17.877352 -0.50433,3.54624 0.16352,6.67871 -1.6514,10.68759 0.004,5.3587 -3.14497,9.17531 -6.23874,13.01942 l -6.05524,9.52165 c 1.11905,6.31062 1.56768,12.7987 0.73397,19.6263 -2.55608,2.82591 -4.96886,5.38571 -8.24597,5.92086 -3.35949,-2.12425 -5.63497,-4.05516 -5.33241,-5.92086 -0.22582,-4.87194 0.88437,-8.89495 1.83493,-13.01942 -1.24788,3.14275 -0.94665,9.93696 -3.85334,9.50774 -2.77368,-0.62326 -1.19529,-1.7067 -1.21512,-3.20661 -0.0259,-1.95678 0.66342,-6.44536 1.58211,-8.63297 l 6.7892,-10.8819 c 1.57329,-8.83824 1.95765,-18.2011 6.23871,-25.84453 -0.91931,-3.68949 -2.47736,-6.49442 -0.36697,-14.379616 z"
       id="path7"
       sodipodi:nodetypes="ccccccccccccscccc" /><text
       xml:space="preserve"
       transform="scale(0.26458333)"
       id="text7"
       style="font-size:16px;font-family:Sans;-inkscape-font-specification:'Sans, Normal';white-space:pre;shape-inside:url(#rect7);opacity:0.5;fill:#aad400;fill-opacity:1;stroke:none;stroke-width:3.77953;stroke-linecap:round;stroke-linejoin:round;stroke-dasharray:none;stroke-opacity:1;paint-order:markers fill stroke" /><path
       style="opacity:1;fill:none;fill-opacity:1;stroke:#000000;stroke-width:1;stroke-linecap:round;stroke-linejoin:round;stroke-dasharray:none;stroke-opacity:1;paint-order:markers fill stroke"
       d="M 80.000002,64.999998 H 175 l -3,-3"
       id="path8"
       sodipodi:nodetypes="ccc" /><path
       style="fill:none;fill-opacity:1;stroke:#ffffff;stroke-width:3.2;stroke-linecap:round;stroke-linejoin:round;stroke-dasharray:none;stroke-opacity:1;paint-order:markers fill stroke"
       d="m 79.500079,159.5 h 64.999991 l -3,-3"
       id="path8-8-2"
       sodipodi:nodetypes="ccc" /><path
       style="fill:none;fill-opacity:1;stroke:#000000;stroke-width:1;stroke-linecap:round;stroke-linejoin:round;stroke-dasharray:none;stroke-opacity:1;paint-order:markers fill stroke"
       d="m 79.500074,159.5 h 64.999996 l -3,-3"
       id="path8-8"
       sodipodi:nodetypes="ccc" /><text
       xml:space="preserve"
       transform="scale(0.26458333)"
       id="text8"
       style="font-size:16px;font-family:Sans;-inkscape-font-specification:'Sans, Normal';white-space:pre;shape-inside:url(#rect8);opacity:1;fill:#ffffff;fill-opacity:1;stroke:#ffffff;stroke-width:12.0945;stroke-linecap:round;stroke-linejoin:round;stroke-dasharray:none;stroke-opacity:1;paint-order:markers fill stroke" /><text
       xml:space="preserve"
       transform="scale(0.26458333)"
       id="text9"
       style="font-size:16px;font-family:Sans;-inkscape-font-specification:'Sans, Normal';white-space:pre;shape-inside:url(#rect9);opacity:1;fill:#000000;fill-opacity:1;stroke:#ffffff;stroke-width:12.0945;stroke-linecap:round;stroke-linejoin:round;stroke-dasharray:none;stroke-opacity:1;paint-order:markers fill stroke" /><text
       xml:space="preserve"
       transform="matrix(0.26458333,0,0,0.26458333,34.659947,66.174245)"
       id="text10"
       style="font-style:normal;font-variant:normal;font-weight:normal;font-stretch:normal;font-size:26.6667px;font-family:'Yu Gothic';-inkscape-font-specification:'Yu Gothic, Normal';font-variant-ligatures:normal;font-variant-caps:normal;font-variant-numeric:normal;font-variant-east-asian:normal;white-space:pre;shape-inside:url(#rect11);opacity:1;fill:#001a1a;fill-opacity:1;stroke:#000000;stroke-width:0;stroke-linecap:round;stroke-linejoin:round;stroke-dasharray:none;stroke-opacity:1;paint-order:markers fill stroke"><tspan
         x="170.07812"
         y="-10.998013"
         id="tspan3">Absorptive-Black Head</tspan></text><text
       xml:space="preserve"
       transform="matrix(0.26458333,0,0,0.26458333,34.659947,80.815229)"
       id="text10-8"
       style="font-style:normal;font-variant:normal;font-weight:normal;font-stretch:normal;font-size:26.6667px;font-family:'Yu Gothic';-inkscape-font-specification:'Yu Gothic, Normal';font-variant-ligatures:normal;font-variant-caps:normal;font-variant-numeric:normal;font-variant-east-asian:normal;white-space:pre;shape-inside:url(#rect11-5);fill:#001a1a;fill-opacity:1;stroke:#000000;stroke-width:0;stroke-linecap:round;stroke-linejoin:round;stroke-dasharray:none;stroke-opacity:1;paint-order:markers fill stroke"><tspan
         x="170.07812"
         y="-10.998013"
         id="tspan4">Elastic Throat</tspan></text><text
       xml:space="preserve"
       transform="matrix(0.26458333,0,0,0.26458333,34.659947,160.90989)"
       id="text10-8-6"
       style="font-style:normal;font-variant:normal;font-weight:normal;font-stretch:normal;font-size:26.6667px;font-family:'Yu Gothic';-inkscape-font-specification:'Yu Gothic, Normal';font-variant-ligatures:normal;font-variant-caps:normal;font-variant-numeric:normal;font-variant-east-asian:normal;white-space:pre;shape-inside:url(#rect11-5-0);fill:#001a1a;fill-opacity:1;stroke:#000000;stroke-width:0;stroke-linecap:round;stroke-linejoin:round;stroke-dasharray:none;stroke-opacity:1;paint-order:markers fill stroke"><tspan
         x="170.07812"
         y="-10.998013"
         id="tspan5">Acid</tspan></text><path
       style="fill:none;fill-opacity:1;stroke:#ffffff;stroke-width:3.2;stroke-linecap:round;stroke-linejoin:round;stroke-dasharray:none;stroke-opacity:1;paint-order:markers fill stroke"
       d="M 80.000013,135 H 145 l -3,-3"
       id="path8-8-2-5"
       sodipodi:nodetypes="ccc" /><path
       style="fill:none;fill-opacity:1;stroke:#000000;stroke-width:1;stroke-linecap:round;stroke-linejoin:round;stroke-dasharray:none;stroke-opacity:1;paint-order:markers fill stroke"
       d="M 80.000003,135 H 145 l -3,-3"
       id="path8-8-3"
       sodipodi:nodetypes="ccc" /><text
       xml:space="preserve"
       transform="matrix(0.26458333,0,0,0.26458333,35.159877,136.40989)"
       id="text10-8-6-0"
       style="font-style:normal;font-variant:normal;font-weight:normal;font-stretch:normal;font-size:26.6667px;font-family:'Yu Gothic';-inkscape-font-specification:'Yu Gothic, Normal';font-variant-ligatures:normal;font-variant-caps:normal;font-variant-numeric:normal;font-variant-east-asian:normal;white-space:pre;shape-inside:url(#rect11-5-0-2);fill:#001a1a;fill-opacity:1;stroke:#000000;stroke-width:0;stroke-linecap:round;stroke-linejoin:round;stroke-dasharray:none;stroke-opacity:1;paint-order:markers fill stroke"><tspan
         x="170.07812"
         y="-10.998013"
         id="tspan6">Ingestee</tspan></text><path
       style="fill:none;fill-opacity:1;stroke:#ffffff;stroke-width:3.2;stroke-linecap:round;stroke-linejoin:round;stroke-dasharray:none;stroke-opacity:1;paint-order:markers fill stroke"
       d="M 79.500002,79.999998 H 198 l -3,-3"
       id="path8-8-2-5-4"
       sodipodi:nodetypes="ccc" /><path
       style="fill:none;fill-opacity:1;stroke:#000000;stroke-width:1;stroke-linecap:round;stroke-linejoin:round;stroke-dasharray:none;stroke-opacity:1;paint-order:markers fill stroke"
       d="M 79.500002,79.999998 H 198 l -3,-3"
       id="path8-3"
       sodipodi:nodetypes="ccc" /><path
       style="opacity:1;fill:#333333;fill-opacity:1;stroke:#ff0000;stroke-width:0;stroke-linecap:round;stroke-linejoin:round;stroke-dasharray:none;stroke-opacity:1;paint-order:markers fill stroke"
       d="m 183.3595,63.499997 5.11984,2.000001 -5.38017,2.224005"
       id="path11" /></g></svg>
